<svg xmlns="http://www.w3.org/2000/svg" version="1.1" xmlns:xlink="http://www.w3.org/1999/xlink" xmlns:svgjs="http://svgjs.dev/svgjs" width="1500" height="1500" viewBox="0 0 1500 1500"><rect width="1500" height="1500" fill="#ffffff"></rect><g transform="matrix(0.6666666666666666,0,0,0.6666666666666666,249.39393939393938,438.5856950067477)"><svg viewBox="0 0 396 247" data-background-color="#273ed4" preserveAspectRatio="xMidYMid meet" height="935" width="1500" xmlns="http://www.w3.org/2000/svg" xmlns:xlink="http://www.w3.org/1999/xlink"><g id="tight-bounds" transform="matrix(1,0,0,1,0.2400000000000091,-0.09999999999999432)"><svg viewBox="0 0 395.52 247.2" height="247.2" width="395.52"><g><svg></svg></g><g><svg viewBox="0 0 395.52 247.2" height="247.2" width="395.52"><mask id="e034719c-ac5f-4578-88a4-f2a45422c3e0"><rect width="395.52" height="247.2" fill="white"></rect><g transform="matrix(1,0,0,1,0,82.35987396161558)" id="clone"><svg viewBox="0 0 395.52 82.48025207676883" height="82.48025207676883" width="395.52"><g><svg viewBox="0 0 395.52 82.48025207676883" height="82.48025207676883" width="395.52"><g><svg viewBox="0 0 395.52 82.48025207676883" height="82.48025207676883" width="395.52"><g><svg viewBox="0 0 395.52 82.48025207676883" height="82.48025207676883" width="395.52"><g id="SvgjsG7214"><svg viewBox="0 0 395.52 82.48025207676883" height="82.48025207676883" width="395.52" id="SvgjsSvg7213"><g><svg viewBox="0 0 395.52 82.48025207676883" height="82.48025207676883" width="395.52"><g transform="matrix(1,0,0,1,0,0)"><svg width="395.52" viewBox="-1.75 -33.7 175.54 37.4" height="82.48025207676883" data-palette-color="#ffffff"><path d="M23.35-26.95L13.05-26.95 12.8-30.4 24.45-30.4Q24.6-30.2 24.75-29.75 24.9-29.3 24.9-28.8L24.9-28.8Q24.9-28 24.5-27.48 24.1-26.95 23.35-26.95L23.35-26.95ZM2.8-30.4L13.15-30.4 13.4-26.95 1.7-26.95Q1.55-27.2 1.4-27.65 1.25-28.1 1.25-28.6L1.25-28.6Q1.25-29.45 1.65-29.93 2.05-30.4 2.8-30.4L2.8-30.4ZM11.05-1.6L11.05-28.3 15.1-28.3 15.1-0.1Q14.85 0 14.33 0.13 13.8 0.25 13.25 0.25L13.25 0.25Q12.15 0.25 11.6-0.2 11.05-0.65 11.05-1.6L11.05-1.6ZM33.9-18.8L33.9-18.8 33.9-10.9 29.9-10.9 29.9-18.5Q29.9-19.65 30.32-20.33 30.75-21 31.75-21.65L31.75-21.65Q33.05-22.5 35.3-23.13 37.55-23.75 40.3-23.75L40.3-23.75Q44.3-23.75 44.3-21.75L44.3-21.75Q44.3-21.25 44.15-20.83 44-20.4 43.75-20.1L43.75-20.1Q43.25-20.2 42.45-20.3 41.65-20.4 40.85-20.4L40.85-20.4Q38.55-20.4 36.8-19.93 35.05-19.45 33.9-18.8ZM29.9-1.55L29.9-13.2 33.9-12.6 33.9-0.1Q33.65 0 33.15 0.13 32.65 0.25 32.05 0.25L32.05 0.25Q31 0.25 30.45-0.18 29.9-0.6 29.9-1.55L29.9-1.55ZM70.45-11.55L70.45-11.55Q70.45-7.85 69.05-5.1 67.65-2.35 65.09-0.85 62.55 0.65 59.1 0.65L59.1 0.65Q55.65 0.65 53.07-0.85 50.5-2.35 49.1-5.1 47.7-7.85 47.7-11.55L47.7-11.55Q47.7-15.3 49.12-18.03 50.55-20.75 53.12-22.25 55.7-23.75 59.1-23.75L59.1-23.75Q62.5-23.75 65.05-22.25 67.59-20.75 69.02-18.03 70.45-15.3 70.45-11.55ZM59.1-20.45L59.1-20.45Q55.75-20.45 53.77-18.07 51.8-15.7 51.8-11.55L51.8-11.55Q51.8-7.35 53.72-5 55.65-2.65 59.1-2.65L59.1-2.65Q62.5-2.65 64.42-5.03 66.34-7.4 66.34-11.55L66.34-11.55Q66.34-15.7 64.42-18.07 62.5-20.45 59.1-20.45ZM90.24-0.4L90.24-0.4Q89.99-0.2 89.29 0.03 88.59 0.25 87.74 0.25L87.74 0.25Q86.79 0.25 86.04-0.03 85.29-0.3 85.04-0.85L85.04-0.85Q84.24-2.4 83.17-5 82.09-7.6 80.87-10.83 79.64-14.05 78.44-17.43 77.24-20.8 76.22-23.98 75.19-27.15 74.44-29.6L74.44-29.6Q74.74-30 75.34-30.35 75.94-30.7 76.69-30.7L76.69-30.7Q77.64-30.7 78.09-30.25 78.54-29.8 78.84-28.9L78.84-28.9Q81.04-22.4 83.12-16.25 85.19-10.1 87.64-3.85L87.64-3.85 87.84-3.85Q89.29-7.65 90.87-12.08 92.44-16.5 93.92-21.2 95.39-25.9 96.54-30.35L96.54-30.35Q96.89-30.55 97.32-30.63 97.74-30.7 98.24-30.7L98.24-30.7Q99.14-30.7 99.69-30.25 100.24-29.8 100.24-28.9L100.24-28.9Q100.24-28.15 99.69-26.1 99.14-24.05 98.22-21.25 97.29-18.45 96.19-15.35 95.09-12.25 93.94-9.28 92.79-6.3 91.84-3.98 90.89-1.65 90.24-0.4ZM114.04 0.7L114.04 0.7Q109.34 0.7 106.77-1.15 104.19-3 104.19-6.5L104.19-6.5Q104.19-9.75 106.37-11.48 108.54-13.2 112.39-13.55L112.39-13.55 119.49-14.25 119.49-15.65Q119.49-18.15 117.99-19.3 116.49-20.45 113.94-20.45L113.94-20.45Q111.89-20.45 110.02-19.85 108.14-19.25 106.69-18.5L106.69-18.5Q106.29-18.85 105.97-19.33 105.64-19.8 105.64-20.3L105.64-20.3Q105.64-21.6 107.09-22.3L107.09-22.3Q108.44-23 110.22-23.38 111.99-23.75 113.99-23.75L113.99-23.75Q118.34-23.75 120.89-21.8 123.44-19.85 123.44-15.65L123.44-15.65 123.44-3.8Q123.44-2.7 123.02-2.13 122.59-1.55 121.74-1.05L121.74-1.05Q120.54-0.4 118.54 0.15 116.54 0.7 114.04 0.7ZM114.04-2.6L114.04-2.6Q116.14-2.6 117.52-3.03 118.89-3.45 119.49-3.85L119.49-3.85 119.49-11.1 113.29-10.45Q110.69-10.25 109.44-9.3 108.19-8.35 108.19-6.55L108.19-6.55Q108.19-4.7 109.67-3.65 111.14-2.6 114.04-2.6ZM130.79-6.05L130.79-13.2 134.79-13.2 134.79-6.3Q134.79-4.3 135.94-3.48 137.09-2.65 139.09-2.65L139.09-2.65Q139.94-2.65 140.99-2.95 142.04-3.25 142.74-3.65L142.74-3.65Q143.04-3.35 143.29-2.9 143.54-2.45 143.54-1.85L143.54-1.85Q143.54-0.75 142.24-0.05 140.94 0.65 138.64 0.65L138.64 0.65Q135.14 0.65 132.96-0.9 130.79-2.45 130.79-6.05L130.79-6.05ZM141.94-19.3L132.84-19.3 132.84-22.6 142.99-22.6Q143.14-22.4 143.29-21.95 143.44-21.5 143.44-21L143.44-21Q143.44-20.2 143.04-19.75 142.64-19.3 141.94-19.3L141.94-19.3ZM134.79-28.35L134.79-11.7 130.79-11.7 130.79-29.8Q131.04-29.9 131.56-30.03 132.09-30.15 132.69-30.15L132.69-30.15Q133.74-30.15 134.26-29.73 134.79-29.3 134.79-28.35L134.79-28.35ZM170.79-11.55L170.79-11.55Q170.79-7.85 169.39-5.1 167.99-2.35 165.44-0.85 162.89 0.65 159.44 0.65L159.44 0.65Q155.99 0.65 153.41-0.85 150.84-2.35 149.44-5.1 148.04-7.85 148.04-11.55L148.04-11.55Q148.04-15.3 149.46-18.03 150.89-20.75 153.46-22.25 156.04-23.75 159.44-23.75L159.44-23.75Q162.84-23.75 165.39-22.25 167.94-20.75 169.36-18.03 170.79-15.3 170.79-11.55ZM159.44-20.45L159.44-20.45Q156.09-20.45 154.11-18.07 152.14-15.7 152.14-11.55L152.14-11.55Q152.14-7.35 154.06-5 155.99-2.65 159.44-2.65L159.44-2.65Q162.84-2.65 164.76-5.03 166.69-7.4 166.69-11.55L166.69-11.55Q166.69-15.7 164.76-18.07 162.84-20.45 159.44-20.45Z" opacity="1" transform="matrix(1,0,0,1,0,0)" fill="black" class="wordmark-text-0" id="SvgjsPath7212" stroke-width="5" stroke="black" stroke-linejoin="round"></path></svg></g></svg></g></svg></g></svg></g><g></g></svg></g></svg></g></svg></g></mask><g mask="url(#e034719c-ac5f-4578-88a4-f2a45422c3e0)"><g><path d="M280.63 27.825h-83.072l-2.016-27.825h93.96c0.807 1.075 1.613 2.823 2.42 5.242 0.807 2.42 1.21 4.974 1.21 7.662v0c0 4.301-1.075 7.85-3.226 10.647-2.151 2.85-5.242 4.275-9.276 4.274zM114.89 0h83.475l2.016 27.825h-94.363c-0.807-1.344-1.613-3.226-2.42-5.646-0.807-2.42-1.21-4.974-1.21-7.662v0c0-4.57 1.075-8.146 3.226-10.726 2.151-2.527 5.242-3.791 9.276-3.791zM181.428 232.279v-215.342h32.664v227.44c-1.344 0.538-3.414 1.156-6.21 1.855-2.85 0.645-5.753 0.968-8.711 0.968v0c-5.915 0-10.35-1.21-13.307-3.629-2.957-2.42-4.436-6.183-4.436-11.292z" fill="#000000" fill-rule="nonzero" stroke="none" stroke-width="1" stroke-linecap="butt" stroke-linejoin="miter" stroke-miterlimit="10" stroke-dasharray="" stroke-dashoffset="0" font-family="none" font-weight="none" font-size="none" text-anchor="none" style="mix-blend-mode: normal" data-fill-palette-color="tertiary"></path></g></g><g transform="matrix(1,0,0,1,0,82.35987396161558)"><svg viewBox="0 0 395.52 82.48025207676883" height="82.48025207676883" width="395.52"><g><svg viewBox="0 0 395.52 82.48025207676883" height="82.48025207676883" width="395.52"><g><svg viewBox="0 0 395.52 82.48025207676883" height="82.48025207676883" width="395.52"><g><svg viewBox="0 0 395.52 82.48025207676883" height="82.48025207676883" width="395.52"><g id="textblocktransform"><svg viewBox="0 0 395.52 82.48025207676883" height="82.48025207676883" width="395.52" id="textblock"><g><svg viewBox="0 0 395.52 82.48025207676883" height="82.48025207676883" width="395.52"><g transform="matrix(1,0,0,1,0,0)"><svg width="395.52" viewBox="-1.75 -33.7 175.54 37.4" height="82.48025207676883" data-palette-color="#ffffff"><path d="M23.35-26.95L13.05-26.95 12.8-30.4 24.45-30.4Q24.6-30.2 24.75-29.75 24.9-29.3 24.9-28.8L24.9-28.8Q24.9-28 24.5-27.48 24.1-26.95 23.35-26.95L23.35-26.95ZM2.8-30.4L13.15-30.4 13.4-26.95 1.7-26.95Q1.55-27.2 1.4-27.65 1.25-28.1 1.25-28.6L1.25-28.6Q1.25-29.45 1.65-29.93 2.05-30.4 2.8-30.4L2.8-30.4ZM11.05-1.6L11.05-28.3 15.1-28.3 15.1-0.1Q14.85 0 14.33 0.13 13.8 0.25 13.25 0.25L13.25 0.25Q12.15 0.25 11.6-0.2 11.05-0.65 11.05-1.6L11.05-1.6ZM33.9-18.8L33.9-18.8 33.9-10.9 29.9-10.9 29.9-18.5Q29.9-19.65 30.32-20.33 30.75-21 31.75-21.65L31.75-21.65Q33.05-22.5 35.3-23.13 37.55-23.75 40.3-23.75L40.3-23.75Q44.3-23.75 44.3-21.75L44.3-21.75Q44.3-21.25 44.15-20.83 44-20.4 43.75-20.1L43.75-20.1Q43.25-20.2 42.45-20.3 41.65-20.4 40.85-20.4L40.85-20.4Q38.55-20.4 36.8-19.93 35.05-19.45 33.9-18.8ZM29.9-1.55L29.9-13.2 33.9-12.6 33.9-0.1Q33.65 0 33.15 0.13 32.65 0.25 32.05 0.25L32.05 0.25Q31 0.25 30.45-0.18 29.9-0.6 29.9-1.55L29.9-1.55ZM70.45-11.55L70.45-11.55Q70.45-7.85 69.05-5.1 67.65-2.35 65.09-0.85 62.55 0.65 59.1 0.65L59.1 0.65Q55.65 0.65 53.07-0.85 50.5-2.35 49.1-5.1 47.7-7.85 47.7-11.55L47.7-11.55Q47.7-15.3 49.12-18.03 50.55-20.75 53.12-22.25 55.7-23.75 59.1-23.75L59.1-23.75Q62.5-23.75 65.05-22.25 67.59-20.75 69.02-18.03 70.45-15.3 70.45-11.55ZM59.1-20.45L59.1-20.45Q55.75-20.45 53.77-18.07 51.8-15.7 51.8-11.55L51.8-11.55Q51.8-7.35 53.72-5 55.65-2.65 59.1-2.65L59.1-2.65Q62.5-2.65 64.42-5.03 66.34-7.4 66.34-11.55L66.34-11.55Q66.34-15.7 64.42-18.07 62.5-20.45 59.1-20.45ZM90.24-0.4L90.24-0.4Q89.99-0.2 89.29 0.03 88.59 0.25 87.74 0.25L87.74 0.25Q86.79 0.25 86.04-0.03 85.29-0.3 85.04-0.85L85.04-0.85Q84.24-2.4 83.17-5 82.09-7.6 80.87-10.83 79.64-14.05 78.44-17.43 77.24-20.8 76.22-23.98 75.19-27.15 74.44-29.6L74.44-29.6Q74.74-30 75.34-30.35 75.94-30.7 76.69-30.7L76.69-30.7Q77.64-30.7 78.09-30.25 78.54-29.8 78.84-28.9L78.84-28.9Q81.04-22.4 83.12-16.25 85.19-10.1 87.64-3.85L87.64-3.85 87.84-3.85Q89.29-7.65 90.87-12.08 92.44-16.5 93.92-21.2 95.39-25.9 96.54-30.35L96.54-30.35Q96.89-30.55 97.32-30.63 97.74-30.7 98.24-30.7L98.24-30.7Q99.14-30.7 99.69-30.25 100.24-29.8 100.24-28.9L100.24-28.9Q100.24-28.15 99.69-26.1 99.14-24.05 98.22-21.25 97.29-18.45 96.19-15.35 95.09-12.25 93.94-9.28 92.79-6.3 91.84-3.98 90.89-1.65 90.24-0.4ZM114.04 0.7L114.04 0.7Q109.34 0.7 106.77-1.15 104.19-3 104.19-6.5L104.19-6.5Q104.19-9.75 106.37-11.48 108.54-13.2 112.39-13.55L112.39-13.55 119.49-14.25 119.49-15.65Q119.49-18.15 117.99-19.3 116.49-20.45 113.94-20.45L113.94-20.45Q111.89-20.45 110.02-19.85 108.14-19.25 106.69-18.5L106.69-18.5Q106.29-18.85 105.97-19.33 105.64-19.8 105.64-20.3L105.64-20.3Q105.64-21.6 107.09-22.3L107.09-22.3Q108.44-23 110.22-23.38 111.99-23.75 113.99-23.75L113.99-23.75Q118.34-23.75 120.89-21.8 123.44-19.85 123.44-15.65L123.44-15.65 123.44-3.8Q123.44-2.7 123.02-2.13 122.59-1.55 121.74-1.05L121.74-1.05Q120.54-0.4 118.54 0.15 116.54 0.7 114.04 0.7ZM114.04-2.6L114.04-2.6Q116.14-2.6 117.52-3.03 118.89-3.45 119.49-3.85L119.49-3.85 119.49-11.1 113.29-10.45Q110.69-10.25 109.44-9.3 108.19-8.35 108.19-6.55L108.19-6.55Q108.19-4.7 109.67-3.65 111.14-2.6 114.04-2.6ZM130.79-6.05L130.79-13.2 134.79-13.2 134.79-6.3Q134.79-4.3 135.94-3.48 137.09-2.65 139.09-2.65L139.09-2.65Q139.94-2.65 140.99-2.95 142.04-3.25 142.74-3.65L142.74-3.65Q143.04-3.35 143.29-2.9 143.54-2.45 143.54-1.85L143.54-1.85Q143.54-0.75 142.24-0.05 140.94 0.65 138.64 0.65L138.64 0.65Q135.14 0.65 132.96-0.9 130.79-2.45 130.79-6.05L130.79-6.05ZM141.94-19.3L132.84-19.3 132.84-22.6 142.99-22.6Q143.14-22.4 143.29-21.95 143.44-21.5 143.44-21L143.44-21Q143.44-20.2 143.04-19.75 142.64-19.3 141.94-19.3L141.94-19.3ZM134.79-28.35L134.79-11.7 130.79-11.7 130.79-29.8Q131.04-29.9 131.56-30.03 132.09-30.15 132.69-30.15L132.69-30.15Q133.74-30.15 134.26-29.73 134.79-29.3 134.79-28.35L134.79-28.35ZM170.79-11.55L170.79-11.55Q170.79-7.85 169.39-5.1 167.99-2.35 165.44-0.85 162.89 0.65 159.44 0.65L159.44 0.65Q155.99 0.65 153.41-0.85 150.84-2.35 149.44-5.1 148.04-7.85 148.04-11.55L148.04-11.55Q148.04-15.3 149.46-18.03 150.89-20.75 153.46-22.25 156.04-23.75 159.44-23.75L159.44-23.75Q162.84-23.75 165.39-22.25 167.94-20.75 169.36-18.03 170.79-15.3 170.79-11.55ZM159.44-20.45L159.44-20.45Q156.09-20.45 154.11-18.07 152.14-15.7 152.14-11.55L152.14-11.55Q152.14-7.35 154.06-5 155.99-2.65 159.44-2.65L159.44-2.65Q162.84-2.65 164.76-5.03 166.69-7.4 166.69-11.55L166.69-11.55Q166.69-15.7 164.76-18.07 162.84-20.45 159.44-20.45Z" opacity="1" transform="matrix(1,0,0,1,0,0)" fill="#000000" class="wordmark-text-0" data-fill-palette-color="primary" id="text-0"></path></svg></g></svg></g></svg></g></svg></g><g></g></svg></g></svg></g></svg></g></svg></g><defs></defs></svg><rect width="395.52" height="247.2" fill="none" stroke="none" visibility="hidden"></rect></g></svg></g></svg>